<?xml version="1.0" encoding="UTF-8" standalone="no"?>
<svg width="100" height="100" viewBox="0 0 100 100" xmlns="http://www.w3.org/2000/svg">
  <!-- Sphinx body (lion body) -->
  <path d="M80,60 C80,60 75,50 70,48 C65,46 60,45 55,45 L40,45 C35,45 30,46 25,48 C20,50 15,60 15,60 L15,75 C15,75 35,85 50,85 C65,85 85,75 85,75 L80,60 Z" 
        fill="#f0c48a" stroke="#000" stroke-width="1.5"/>
  
  <!-- Paws -->
  <path d="M25,75 C25,75 23,80 25,85 C27,90 32,90 35,85 C38,80 35,75 35,75" 
        fill="#f0c48a" stroke="#000" stroke-width="1.5"/>
  <path d="M65,75 C65,75 63,80 65,85 C67,90 72,90 75,85 C78,80 75,75 75,75" 
        fill="#f0c48a" stroke="#000" stroke-width="1.5"/>
  
  <!-- Head (human face) -->
  <ellipse cx="50" cy="35" rx="15" ry="20" fill="#f0c48a" stroke="#000" stroke-width="1.5"/>
  
  <!-- Face details -->
  <path d="M45,35 C45,35 45,37 47,38 C49,39 51,39 53,38 C55,37 55,35 55,35" 
        fill="none" stroke="#000" stroke-width="1"/>
  
  <!-- Eyes -->
  <ellipse cx="43" cy="30" rx="2" ry="3" fill="#000"/>
  <ellipse cx="57" cy="30" rx="2" ry="3" fill="#000"/>
  
  <!-- Headdress -->
  <path d="M35,25 C35,25 42,15 50,15 C58,15 65,25 65,25" 
        fill="none" stroke="#000" stroke-width="1.5"/>
  <path d="M35,25 L65,25" stroke="#000" stroke-width="1.5"/>
  
  <!-- Sphinx decoration lines -->
  <path d="M40,25 L40,15" stroke="#000" stroke-width="1"/>
  <path d="M50,25 L50,10" stroke="#000" stroke-width="1"/>
  <path d="M60,25 L60,15" stroke="#000" stroke-width="1"/>
</svg>
